<?xml version="1.0" encoding="UTF-8" standalone="no"?>
<!-- Created with Inkscape (http://www.inkscape.org/) -->

<svg
   xmlns:dc="http://purl.org/dc/elements/1.1/"
   xmlns:cc="http://creativecommons.org/ns#"
   xmlns:rdf="http://www.w3.org/1999/02/22-rdf-syntax-ns#"
   xmlns:svg="http://www.w3.org/2000/svg"
   xmlns="http://www.w3.org/2000/svg"
   xmlns:sodipodi="http://sodipodi.sourceforge.net/DTD/sodipodi-0.dtd"
   xmlns:inkscape="http://www.inkscape.org/namespaces/inkscape"
   id="svg2"
   version="1.1"
   inkscape:version="0.48.4 r9939"
   width="700"
   height="700"
   xml:space="preserve"
   sodipodi:docname="goal-set.svg"><metadata
     id="metadata8"><rdf:RDF><cc:Work
         rdf:about=""><dc:format>image/svg+xml</dc:format><dc:type
           rdf:resource="http://purl.org/dc/dcmitype/StillImage" /><dc:title /></cc:Work></rdf:RDF></metadata><defs
     id="defs6"><clipPath
       clipPathUnits="userSpaceOnUse"
       id="clipPath36"><path
         d="m 1080.16,5352.58 c 0,-278.43 -225.738,-504.18 -504.168,-504.18 -278.703,0 -504.1717,225.75 -504.1717,504.18 0,278.43 225.4687,504.17 504.1717,504.17 278.43,0 504.168,-225.74 504.168,-504.17 l 0,0 0,0 z"
         id="path38"
         inkscape:connector-curvature="0" /></clipPath></defs><sodipodi:namedview
     pagecolor="#ffffff"
     bordercolor="#666666"
     borderopacity="1"
     objecttolerance="10"
     gridtolerance="10"
     guidetolerance="10"
     inkscape:pageopacity="0"
     inkscape:pageshadow="2"
     inkscape:window-width="1440"
     inkscape:window-height="873"
     id="namedview4"
     showgrid="false"
     inkscape:zoom="0.32236583"
     inkscape:cx="1993.8317"
     inkscape:cy="-390.86029"
     inkscape:window-x="1366"
     inkscape:window-y="0"
     inkscape:window-maximized="1"
     inkscape:current-layer="g12" /><g
     id="g10"
     inkscape:groupmode="layer"
     inkscape:label="ink_ext_XXXXXX"
     transform="matrix(1.25,0,0,-1.25,0,699.99998)"><g
       id="g12"
       transform="scale(0.1,0.1)"><path
         d="m 1303.4086,2369.7657 361.2261,-1542.35635 1986.7458,0 318.4415,1542.35635"
         style="fill:none;stroke:#1a171b;stroke-width:233.30067444;stroke-linecap:round;stroke-linejoin:miter;stroke-miterlimit:4;stroke-opacity:1;stroke-dasharray:none"
         id="path14"
         inkscape:connector-curvature="0" /><path
         d="m 1981.0758,24.816527 c 197.08,0 356.85,159.761993 356.85,356.851993 0,197.078 -159.77,356.847 -356.85,356.847 -197.08,0 -356.85,-159.769 -356.85,-356.847 0,-197.09 159.77,-356.851993 356.85,-356.851993 l 0,0"
         style="fill:#1a171b;fill-opacity:1;fill-rule:nonzero;stroke:none"
         id="path16"
         inkscape:connector-curvature="0" /><path
         d="m 3292.5958,24.816527 c 197.08,0 356.85,159.761993 356.85,356.851993 0,197.078 -159.77,356.847 -356.85,356.847 -197.08,0 -356.85,-159.769 -356.85,-356.847 0,-197.09 159.77,-356.851993 356.85,-356.851993 l 0,0"
         style="fill:#1a171b;fill-opacity:1;fill-rule:nonzero;stroke:none"
         id="path18"
         inkscape:connector-curvature="0" /><g
         id="g3000"
         transform="matrix(1.9152575,0,0,1.9152575,-2846.4887,-6406.0814)"><path
           inkscape:connector-curvature="0"
           id="path20"
           style="fill:#00ff00;fill-opacity:1;fill-rule:nonzero;stroke:none"
           d="m 2685.88,4056.74 207.29,42.35 42.27,-207.34 303.1,469.45 c -101.12,26.45 -191.24,81.31 -251.76,154.98 l -300.9,-459.44 0,0" /><path
           inkscape:connector-curvature="0"
           id="path22"
           style="fill:#00ff00;fill-opacity:1;fill-rule:nonzero;stroke:none"
           d="m 3575.21,4391.11 c -89.99,-41.68 -189.89,-56.15 -293.03,-39.18 l 86.19,-552.2 122.95,172.22 171.91,-122.95 -88.02,542.11 0,0" /><path
           inkscape:connector-curvature="0"
           id="path24"
           style="fill:#00ff00;fill-opacity:1;fill-rule:nonzero;stroke:none"
           d="m 3798.97,4750.36 c 51.68,243.15 -101.44,478.94 -344.6,530.63 -243.15,51.68 -478.94,-101.45 -530.62,-344.6 -51.69,-243.15 101.44,-478.95 344.59,-530.63 243.15,-51.68 478.95,101.44 530.63,344.6 l 0,0" /><path
           inkscape:connector-curvature="0"
           id="path26"
           style="fill:#ffffff;fill-opacity:1;fill-rule:nonzero;stroke:none"
           d="m 3338.42,4708.4 c -21.73,-14.08 -50.77,-7.91 -64.85,13.78 l -79.16,121.87 c -14.08,21.71 -7.91,50.74 13.79,64.87 21.74,14.08 50.77,7.91 64.86,-13.79 l 47.15,-72.61 c 3.55,-5.47 10.9,-7.03 16.37,-3.48 l 196.57,127.67 c 21.75,14.08 50.77,7.91 64.86,-13.79 6.78,-10.44 9.14,-23.15 6.56,-35.31 -2.58,-12.15 -9.91,-22.77 -20.35,-29.55 l -245.8,-159.66 0,0" /></g><path
         d="m 1477.2244,4856.2495 c 0,-278.43 -225.738,-504.18 -504.16798,-504.18 -278.703,0 -504.1717,225.75 -504.1717,504.18 0,278.43 225.4687,504.17 504.1717,504.17 278.42998,0 504.16798,-225.74 504.16798,-504.17 l 0,0"
         style="fill:#1a171b;fill-opacity:1;fill-rule:nonzero;stroke:none"
         id="path30"
         inkscape:connector-curvature="0" /><g
         id="g32"
         transform="translate(397.06442,-496.33053)"><g
           id="g34"
           clip-path="url(#clipPath36)"><path
             d="M 741.902,5500.8 302.559,5988.74"
             style="fill:none;stroke:#ffffff;stroke-width:133.0269928;stroke-linecap:butt;stroke-linejoin:miter;stroke-miterlimit:4;stroke-opacity:1;stroke-dasharray:none"
             id="path40"
             inkscape:connector-curvature="0" /></g></g><path
         d="m 2555.8144,4043.8995 c -46.01,17.76 -97.61,-5.11 -115.18,-51.06 l -351.75,-910.52 -177.4,0 c 25.53,33.77 39.89,76.31 36.15,122.06 -8.24,97.83 -94.63,170.67 -191.98,162.43 -278.7,-23.14 -319.34,36.42 -341.47,68.35 -115.108,93.06 -91.698,499.13 -91.698,499.13 0,206.61 -181.356,345.15 -349.70298,386.4 0,0 -53.172,15.93 -109.539,14.64 -53.985,-1.09 -114.364,-13.55 -114.364,-13.55 l -1.363,-0.27 c -169.644,-41.53 -350.453,-179.79 -350.453,-387.22 l 0.27344,-1112.84 c 0,-241.73 240.10156,-391.43 462.43756,-391.43 12.461,0 24.984,1.02 37.508,1.84 l 620.38098,0.54 132.68,-1142.65 c 13.55,-118.12 113.55,-204.77 229.48,-204.77 8.78,0 17.84,0.54 26.89,1.29 126.83,14.9 217.78,129.75 203.14,256.64 l -156.37,1347.43 c -13.28,116.75 -112.19,204.77 -229.76,204.77 l -0.27,0 -400.968,-0.27 0,169.37 c 44.117,-19.4 93.878,-34.03 149.978,-43.63 -2.93,-8.79 -4.77,-17.77 -4.77,-27.37 0,-49.22 39.82,-89.11 89.04,-89.11 l 593.28,0 c 36.7,0 69.65,22.6 82.99,56.91 l 373.6,967.7 c 17.84,46.02 -5.04,97.35 -50.79,115.19 l 0,0"
         style="fill:#1a171b;fill-opacity:1;fill-rule:nonzero;stroke:none"
         id="path42"
         inkscape:connector-curvature="0" /><path
         d="m 1128.5644,4771.6595 c 115.57,0 209.262,84.31 209.262,188.3 0,104 -93.692,188.3 -209.262,188.3 -115.574,0 -209.26598,-84.3 -209.26598,-188.3 0,-103.99 93.69198,-188.3 209.26598,-188.3 l 0,0"
         style="fill:#ffffff;fill-opacity:1;fill-rule:nonzero;stroke:none"
         id="path44"
         inkscape:connector-curvature="0" /><g
         id="g3006"
         transform="matrix(1.1537425,-0.20308094,0.20308094,1.1537425,633.44425,-346.50906)"><path
           inkscape:connector-curvature="0"
           id="path28"
           style="fill:#1a171b;fill-opacity:1;fill-rule:nonzero;stroke:none"
           d="m 2394.5057,4182.876 c 0,0 80.9,-182.9 266.38,-108.07 l 209.28,84.44 c 0,0 283.25,114.28 0.21,229.09 l -407.63,165.35 c 0,0 -283.03,114.81 -159.48,-164.53 l 91.24,-206.28 0,0" /><path
           inkscape:connector-curvature="0"
           id="path46"
           style="fill:none;stroke:#1a171b;stroke-width:133.0269928;stroke-linecap:butt;stroke-linejoin:miter;stroke-miterlimit:4;stroke-opacity:1;stroke-dasharray:none"
           d="m 2623.4857,4382.236 472.22,1095.55" /></g></g></g></svg>