<?xml version="1.0" encoding="UTF-8" standalone="no"?>
<!-- Created with Inkscape (http://www.inkscape.org/) -->

<svg
   xmlns:dc="http://purl.org/dc/elements/1.1/"
   xmlns:cc="http://creativecommons.org/ns#"
   xmlns:rdf="http://www.w3.org/1999/02/22-rdf-syntax-ns#"
   xmlns:svg="http://www.w3.org/2000/svg"
   xmlns="http://www.w3.org/2000/svg"
   xmlns:sodipodi="http://sodipodi.sourceforge.net/DTD/sodipodi-0.dtd"
   xmlns:inkscape="http://www.inkscape.org/namespaces/inkscape"
   id="svg2"
   version="1.1"
   inkscape:version="0.48.4 r9939"
   width="700"
   height="700"
   xml:space="preserve"
   sodipodi:docname="goal-to-set.svg"><metadata
     id="metadata8"><rdf:RDF><cc:Work
         rdf:about=""><dc:format>image/svg+xml</dc:format><dc:type
           rdf:resource="http://purl.org/dc/dcmitype/StillImage" /><dc:title /></cc:Work></rdf:RDF></metadata><defs
     id="defs6"><clipPath
       clipPathUnits="userSpaceOnUse"
       id="clipPath36"><path
         d="m 1080.16,5352.58 c 0,-278.43 -225.738,-504.18 -504.168,-504.18 -278.703,0 -504.1717,225.75 -504.1717,504.18 0,278.43 225.4687,504.17 504.1717,504.17 278.43,0 504.168,-225.74 504.168,-504.17 l 0,0 0,0 z"
         id="path38"
         inkscape:connector-curvature="0" /></clipPath></defs><sodipodi:namedview
     pagecolor="#ffffff"
     bordercolor="#666666"
     borderopacity="1"
     objecttolerance="10"
     gridtolerance="10"
     guidetolerance="10"
     inkscape:pageopacity="0"
     inkscape:pageshadow="2"
     inkscape:window-width="1440"
     inkscape:window-height="873"
     id="namedview4"
     showgrid="false"
     inkscape:zoom="0.32236583"
     inkscape:cx="1994.0317"
     inkscape:cy="-393.76237"
     inkscape:window-x="1366"
     inkscape:window-y="0"
     inkscape:window-maximized="1"
     inkscape:current-layer="g12"
     fit-margin-left="0.2"
     fit-margin-top="0.2"
     fit-margin-right="0.2"
     fit-margin-bottom="0.2" /><g
     id="g10"
     inkscape:groupmode="layer"
     inkscape:label="ink_ext_XXXXXX"
     transform="matrix(1.25,0,0,-1.25,43.628921,699.80003)"><g
       id="g12"
       transform="scale(0.1,0.1)"><path
         d="m 964.79377,2375.316 361.22603,-1542.35622 1986.7459,0 318.4415,1542.35622"
         style="fill:none;stroke:#1a171b;stroke-width:233.30067444;stroke-linecap:round;stroke-linejoin:miter;stroke-miterlimit:4;stroke-opacity:1;stroke-dasharray:none"
         id="path14"
         inkscape:connector-curvature="0" /><path
         d="m 1642.461,30.366947 c 197.08,0 356.85,159.762003 356.85,356.852003 0,197.078 -159.77,356.847 -356.85,356.847 -197.08,0 -356.85,-159.769 -356.85,-356.847 0,-197.09 159.77,-356.852003 356.85,-356.852003 l 0,0"
         style="fill:#1a171b;fill-opacity:1;fill-rule:nonzero;stroke:none"
         id="path16"
         inkscape:connector-curvature="0" /><path
         d="m 2953.981,30.366947 c 197.08,0 356.85,159.762003 356.85,356.852003 0,197.078 -159.77,356.847 -356.85,356.847 -197.08,0 -356.85,-159.769 -356.85,-356.847 0,-197.09 159.77,-356.852003 356.85,-356.852003 l 0,0"
         style="fill:#1a171b;fill-opacity:1;fill-rule:nonzero;stroke:none"
         id="path18"
         inkscape:connector-curvature="0" /><path
         d="m 1138.6096,4861.7998 c 0,-278.43 -225.73801,-504.18 -504.16801,-504.18 -278.70302,0 -504.17171,225.75 -504.17171,504.18 0,278.43 225.46869,504.17 504.17171,504.17 278.43,0 504.16801,-225.74 504.16801,-504.17 l 0,0"
         style="fill:#1a171b;fill-opacity:1;fill-rule:nonzero;stroke:none"
         id="path30"
         inkscape:connector-curvature="0" /><g
         id="g32"
         transform="translate(58.449576,-490.7801)"><g
           id="g34"
           clip-path="url(#clipPath36)"><path
             d="M 741.902,5500.8 302.559,5988.74"
             style="fill:none;stroke:#ffffff;stroke-width:133.0269928;stroke-linecap:butt;stroke-linejoin:miter;stroke-miterlimit:4;stroke-opacity:1;stroke-dasharray:none"
             id="path40"
             inkscape:connector-curvature="0" /></g></g><path
         d="m 2217.1996,4049.4498 c -46.01,17.76 -97.61,-5.11 -115.18,-51.06 l -351.75,-910.52 -177.4,0 c 25.53,33.77 39.89,76.31 36.15,122.06 -8.24,97.83 -94.63,170.67 -191.98,162.43 -278.7,-23.14 -319.34,36.42 -341.47,68.35 -115.10803,93.06 -91.69803,499.13 -91.69803,499.13 0,206.61 -181.35598,345.15 -349.70298,386.4 0,0 -53.172,15.93 -109.539,14.64 -53.985,-1.09 -114.36402,-13.55 -114.36402,-13.55 l -1.363,-0.27 c -169.644,-41.53 -350.452994,-179.79 -350.452994,-387.22 l 0.27344,-1112.84 c 0,-241.73 240.101554,-391.43 462.437574,-391.43 12.461,0 24.984,1.02 37.508,1.84 l 620.38101,0.54 132.68,-1142.65 c 13.55,-118.12 113.55,-204.77 229.48,-204.77 8.78,0 17.84,0.54 26.89,1.29 126.83,14.9 217.78,129.75 203.14,256.64 l -156.37,1347.43 c -13.28,116.75 -112.19,204.77 -229.76,204.77 l -0.27,0 -400.96803,-0.27 0,169.37 c 44.11703,-19.4 93.87803,-34.03 149.97803,-43.63 -2.93,-8.79 -4.77,-17.77 -4.77,-27.37 0,-49.22 39.82,-89.11 89.04,-89.11 l 593.28,0 c 36.7,0 69.65,22.6 82.99,56.91 l 373.6,967.7 c 17.84,46.02 -5.04,97.35 -50.79,115.19 l 0,0"
         style="fill:#1a171b;fill-opacity:1;fill-rule:nonzero;stroke:none"
         id="path42"
         inkscape:connector-curvature="0" /><path
         d="m 789.94959,4777.2098 c 115.57,0 209.26201,84.31 209.26201,188.3 0,104 -93.69201,188.3 -209.26201,188.3 -115.574,0 -209.266,-84.3 -209.266,-188.3 0,-103.99 93.692,-188.3 209.266,-188.3 l 0,0"
         style="fill:#ffffff;fill-opacity:1;fill-rule:nonzero;stroke:none"
         id="path44"
         inkscape:connector-curvature="0" /></g></g></svg>